<?xml version="1.0" encoding="UTF-8"?>
<svg id="Ebene_1" xmlns="http://www.w3.org/2000/svg" version="1.1" viewBox="0 0 16 16">
	<defs>
		<style>
			.st0 {
			fill: #fff;
			}

			.st1 {
			fill: #3574f0;
			}

			.st2 {
			fill: #00af0c;
			}
		</style>
	</defs>
	<path class="st1"
	      d="M13,.31c2.06,0,2.42,1.73,2.06,3.3l-1.33,6.01c-.1.43-.54.71-.99.62s-.74-.52-.65-.95l1.25-5.68c.57-2.48-2.66-2.17-3.98-.33l-1.42,6.35c-.1.43-.54.71-.99.62-.02,0-.04,0-.06-.01-.43-.11-.7-.52-.61-.94l1.26-5.69c.26-1.12-.28-1.67-1.06-1.77-.93-.1-2.2.45-2.91,1.44h0l-1.42,6.36c-.1.43-.54.71-1,.62-.45-.09-.74-.52-.65-.95L2.34,1.11c.1-.43.54-.71,1-.62.52.1.73.58.63,1.03.95-.75,2.06-1.28,3.32-1.21,1.23.02,1.84.69,2.04,1.56,1.14-.97,2.1-1.56,3.68-1.56h-.01Z"/>
	<g>
		<path class="st2"
		      d="M13.77,15.74c-.33-.02-.56-.26-.56-.56v-.46c-.77.43-1.58.68-2.43.68-2.3,0-4.18-1.87-4.18-4.17,0-.3.24-.54.54-.54s.54.24.54.54c0,1.71,1.39,3.09,3.09,3.09.59,0,1.15-.16,1.64-.47l-.65-.09c-.3,0-.54-.24-.54-.54s.24-.54.54-.54h1.99c.3,0,.54.24.54.54v1.99c0,.3-.24.54-.54.54h.01Z"/>
		<path class="st0"
		      d="M7.15,10.73c.27,0,.49.22.49.49,0,1.73,1.41,3.14,3.14,3.14.6,0,1.16-.16,1.67-.48l.29-.18h-.97c-.27,0-.49-.22-.49-.49s.22-.49.49-.49h1.99c.27,0,.49.22.49.49v1.99c0,.26-.2.47-.45.49h0s-.04,0-.04,0c-.27,0-.49-.22-.49-.49v-.65l-.16.11c-.68.47-1.48.71-2.32.71-2.27,0-4.12-1.85-4.12-4.12,0-.27.22-.49.49-.49M7.15,10.63c-.33,0-.59.26-.59.59,0,2.33,1.89,4.22,4.22,4.22.86,0,1.68-.25,2.38-.73v.46c0,.33.26.59.59.59h.01c.33.01.59-.25.59-.58v-1.99c0-.33-.26-.59-.59-.59h-1.99c-.33,0-.59.26-.59.59s.26.59.59.59h.62c-.49.31-1.04.46-1.62.46-1.68,0-3.04-1.36-3.04-3.04,0-.33-.26-.59-.59-.59h0Z"/>
	</g>
	<g>
		<path class="st2"
		      d="M14.42,11.77c-.3,0-.54-.24-.54-.54,0-1.71-1.39-3.09-3.09-3.09-.59,0-1.15.16-1.64.47l.65.09c.3,0,.54.24.54.54s-.24.54-.54.54h-1.99c-.3,0-.54-.24-.54-.54v-1.99c0-.3.24-.54.54-.54s.54.24.54.54v.46c.77-.43,1.58-.68,2.43-.68,2.3,0,4.17,1.87,4.17,4.17,0,.3-.24.54-.54.54h.01Z"/>
		<path class="st0"
		      d="M7.8,6.76c.27,0,.49.22.49.49v.65l.16-.11c.68-.47,1.48-.71,2.32-.71,2.27,0,4.12,1.85,4.12,4.12,0,.27-.22.49-.49.49h-.07c-.23-.04-.41-.24-.41-.48,0-1.73-1.41-3.14-3.14-3.14-.6,0-1.16.16-1.67.48l-.29.18h.97c.27,0,.49.22.49.49s-.22.49-.49.49h-1.99c-.27,0-.49-.22-.49-.49v-1.99c0-.27.22-.49.49-.49M7.8,6.66c-.33,0-.59.26-.59.59v1.99c0,.33.26.59.59.59h1.99c.33,0,.59-.26.59-.59s-.26-.59-.59-.59h-.62c.49-.31,1.04-.46,1.62-.46,1.68,0,3.04,1.36,3.04,3.04,0,.33.26.59.59.59h-.01c.33-.01.59-.27.59-.6,0-2.33-1.89-4.22-4.22-4.22-.86,0-1.68.25-2.38.73v-.46c0-.33-.26-.59-.59-.59h0Z"/>
	</g>
</svg>
